<?xml version="1.0" standalone="no"?>
<!DOCTYPE svg PUBLIC "-//W3C//DTD SVG 20010904//EN"
 "http://www.w3.org/TR/2001/REC-SVG-20010904/DTD/svg10.dtd">
<svg version="1.0" xmlns="http://www.w3.org/2000/svg"
 width="3877.000000pt" height="3877.000000pt" viewBox="0 0 3877.000000 3877.000000"
 preserveAspectRatio="xMidYMid meet">
<metadata>
Created by potrace 1.11, written by Peter Selinger 2001-2013
</metadata>
<g transform="translate(0.000000,3877.000000) scale(0.100000,-0.100000)"
fill="#000000" stroke="none">
<path d="M23799 29686 c-2 -2 -42 -6 -89 -10 -449 -35 -961 -218 -1371 -493
-54 -36 -72 -43 -95 -37 -65 14 -319 13 -394 -1 -282 -55 -522 -207 -754 -474
-45 -53 -105 -127 -131 -166 -27 -38 -52 -72 -55 -75 -9 -7 -117 -186 -168
-277 -64 -116 -172 -342 -231 -483 -29 -69 -56 -134 -61 -145 -17 -38 -108
-291 -153 -425 -109 -325 -293 -996 -362 -1321 -2 -9 -12 -59 -24 -110 -11
-52 -22 -105 -25 -119 -2 -14 -11 -59 -20 -100 -8 -41 -18 -91 -21 -110 -15
-88 -38 -192 -61 -270 -46 -157 -85 -294 -109 -385 -13 -49 -31 -117 -40 -150
-25 -94 -111 -486 -139 -630 -27 -140 -30 -157 -51 -285 -3 -19 -10 -60 -15
-90 -5 -30 -12 -77 -16 -105 -3 -27 -8 -57 -9 -65 -2 -9 -6 -43 -10 -75 -4
-33 -9 -69 -11 -80 -2 -11 -6 -47 -9 -82 -3 -34 -8 -72 -10 -84 -3 -12 -7 -50
-10 -83 -12 -132 -16 -173 -20 -211 -4 -37 -12 -141 -20 -275 -30 -487 -20
-1299 20 -1657 6 -53 10 -102 20 -212 4 -41 8 -82 10 -90 2 -9 6 -45 9 -81 4
-36 10 -78 13 -95 3 -16 7 -41 9 -55 9 -82 13 -112 24 -175 6 -38 20 -115 30
-170 11 -55 22 -111 24 -125 11 -58 26 -129 41 -195 9 -38 19 -81 21 -95 8
-43 84 -320 120 -438 l35 -113 4 -352 c3 -194 7 -604 10 -912 13 -1333 16
-1630 20 -1975 6 -503 7 -1502 1 -1630 -3 -58 -8 -168 -11 -245 -3 -77 -8
-167 -10 -200 -12 -161 -16 -213 -20 -250 -2 -22 -7 -67 -10 -100 -8 -78 -15
-134 -20 -165 -2 -14 -7 -47 -10 -75 -9 -77 -15 -116 -25 -170 -5 -27 -12 -63
-15 -80 -34 -212 -110 -464 -184 -615 -54 -111 -106 -184 -174 -245 -77 -70
-146 -98 -248 -99 -68 -1 -82 3 -150 36 -73 37 -99 56 -189 142 -265 251 -608
843 -988 1706 -32 74 -83 191 -111 260 -29 69 -59 139 -66 155 -31 70 -189
465 -260 650 -43 110 -92 238 -110 285 -47 122 -252 679 -287 780 -16 47 -35
101 -43 120 -60 148 -537 1565 -705 2090 -44 140 -87 273 -95 295 -7 22 -25
78 -40 125 -14 47 -43 139 -64 205 -21 66 -57 181 -80 255 -24 74 -46 146 -51
160 -5 14 -30 93 -55 175 -79 258 -117 379 -125 405 -23 69 -102 329 -225 740
-74 250 -146 491 -160 535 -48 159 -217 751 -222 774 -2 14 -6 28 -9 33 -4 6
-50 167 -110 386 -8 28 -21 78 -30 110 -8 31 -17 64 -19 72 -3 8 -14 49 -25
90 -25 90 -89 328 -95 351 -2 10 -19 77 -39 150 -55 208 -107 410 -116 454 -5
22 -32 130 -59 240 -41 166 -146 615 -165 706 -3 13 -7 33 -9 44 -13 57 -50
233 -53 255 -3 14 -7 31 -10 39 -2 8 -7 30 -10 50 -3 20 -9 52 -14 71 -5 19
-11 51 -14 70 -4 31 -13 77 -31 170 -5 26 -33 183 -41 235 -3 17 -6 37 -9 45
-2 8 -6 45 -10 82 -3 37 -8 77 -10 90 -9 58 -18 132 -30 253 -3 39 -8 77 -11
85 -2 8 -6 36 -8 61 -3 25 -10 86 -16 135 -6 49 -13 107 -16 129 -2 22 -7 57
-9 78 -7 49 -15 113 -20 160 -3 20 -7 56 -10 80 -9 69 -20 156 -30 247 -4 30
-8 66 -10 80 -2 14 -7 54 -10 90 -4 36 -9 73 -10 82 -2 9 -6 44 -10 77 -3 33
-7 68 -9 78 -2 10 -7 47 -11 83 -4 36 -9 74 -11 85 -3 11 -6 36 -9 55 -3 19
-7 46 -10 60 -2 13 -7 42 -10 65 -26 173 -83 404 -120 477 -77 154 -262 344
-455 470 -140 91 -390 190 -565 224 -11 2 -31 6 -45 9 -88 18 -179 31 -280 42
-147 15 -725 7 -782 -11 -7 -3 -39 -7 -72 -10 -91 -9 -302 -55 -380 -83 -273
-98 -420 -222 -492 -415 -23 -61 -27 -90 -28 -178 -1 -92 3 -117 31 -205 18
-55 36 -122 40 -150 11 -61 9 -3904 -1 -4135 -4 -91 -9 -185 -11 -210 -2 -25
-6 -97 -10 -160 -4 -63 -8 -135 -10 -160 -2 -25 -7 -83 -10 -130 -4 -47 -8
-101 -10 -120 -2 -19 -7 -71 -10 -115 -3 -44 -8 -91 -10 -105 -2 -14 -7 -63
-10 -109 -4 -47 -8 -92 -10 -102 -2 -10 -7 -53 -10 -96 -4 -43 -9 -86 -11 -96
-1 -10 -6 -53 -10 -95 -3 -42 -8 -85 -10 -95 -2 -10 -8 -64 -14 -120 -6 -56
-13 -115 -15 -132 -2 -16 -7 -52 -10 -80 -5 -53 -11 -94 -20 -160 -6 -40 -10
-79 -21 -170 -3 -27 -7 -61 -9 -75 -2 -14 -9 -63 -15 -110 -6 -47 -13 -96 -15
-110 -2 -14 -6 -43 -9 -65 -3 -22 -8 -58 -11 -80 -7 -52 -13 -102 -19 -145 -3
-19 -8 -53 -11 -75 -6 -50 -44 -311 -50 -346 -3 -15 -7 -44 -10 -65 -12 -92
-16 -119 -20 -143 -2 -14 -7 -46 -10 -71 -3 -25 -10 -72 -15 -105 -5 -33 -12
-80 -15 -105 -3 -25 -8 -56 -10 -70 -11 -73 -26 -180 -30 -215 -6 -56 -17
-137 -20 -155 -2 -8 -6 -44 -10 -80 -3 -36 -8 -72 -10 -80 -2 -8 -7 -40 -10
-70 -3 -30 -8 -66 -10 -80 -2 -14 -7 -50 -10 -80 -3 -30 -7 -62 -9 -70 -3 -8
-8 -46 -11 -85 -4 -38 -8 -72 -10 -75 -1 -3 -6 -43 -10 -90 -3 -46 -8 -87 -10
-90 -1 -3 -6 -43 -10 -90 -4 -47 -9 -88 -11 -91 -2 -4 -6 -40 -8 -82 -3 -42
-7 -88 -10 -104 -2 -15 -7 -59 -11 -98 -3 -38 -8 -86 -10 -105 -3 -31 -7 -72
-20 -215 -2 -22 -6 -71 -10 -110 -3 -38 -8 -92 -10 -120 -4 -44 -8 -100 -20
-275 -3 -41 -13 -209 -21 -365 -4 -86 -4 -770 0 -893 2 -57 7 -170 11 -250 4
-81 9 -178 10 -217 6 -133 16 -340 20 -375 2 -19 6 -93 10 -165 4 -71 8 -155
11 -185 2 -30 6 -102 9 -160 3 -58 8 -157 11 -220 3 -63 7 -149 9 -190 4 -82
12 -527 20 -1040 3 -179 7 -365 9 -415 8 -172 17 -350 21 -391 2 -22 7 -87 10
-145 4 -57 8 -117 11 -134 2 -16 6 -64 9 -105 3 -41 8 -90 11 -107 2 -18 7
-54 9 -80 3 -27 7 -61 9 -78 3 -16 8 -57 11 -90 4 -33 8 -67 10 -75 3 -8 7
-33 10 -55 12 -81 25 -161 30 -185 3 -14 8 -41 11 -60 22 -139 106 -467 158
-616 259 -735 675 -966 1245 -692 431 207 711 508 699 748 -3 59 -9 75 -53
145 -74 120 -171 269 -246 375 -85 122 -126 204 -189 380 -35 95 -92 319 -124
485 -8 44 -17 89 -20 100 -2 11 -9 54 -16 95 -6 41 -14 86 -16 100 -6 37 -22
147 -29 205 -4 28 -8 61 -10 75 -4 22 -26 222 -41 365 -3 28 -7 61 -9 75 -2
14 -6 66 -10 115 -3 50 -8 108 -10 130 -4 40 -10 115 -20 270 -3 44 -8 114
-11 155 -2 41 -7 113 -9 160 -2 47 -7 137 -10 200 -13 248 -21 452 -30 760
-24 827 -24 2110 0 2475 2 33 7 120 10 193 4 73 8 156 10 185 2 28 6 99 10
157 3 58 8 125 10 150 2 25 7 83 10 130 3 47 8 105 10 130 3 25 7 72 10 105 2
33 7 98 10 143 4 46 8 92 10 101 2 10 6 60 10 111 4 51 8 100 10 109 2 9 6 54
10 100 4 47 9 93 11 104 2 11 6 54 9 96 3 42 7 85 9 96 2 11 7 52 11 90 3 39
8 84 10 100 2 17 7 55 10 85 3 30 7 69 9 85 3 17 7 57 10 90 4 33 8 76 11 95
2 19 7 60 10 90 4 30 8 66 10 80 2 14 6 50 10 80 18 154 24 207 30 240 2 14 7
50 10 81 3 31 7 65 9 75 2 11 7 50 11 87 3 37 8 76 10 85 3 16 12 87 20 162 2
19 7 53 9 75 10 78 15 121 21 174 4 30 8 61 10 70 1 9 6 47 10 84 3 37 8 76
10 85 1 9 6 44 9 77 4 33 9 71 11 85 3 14 7 48 9 75 6 55 14 120 21 175 3 19
8 60 10 90 3 30 8 66 10 80 3 14 7 50 10 80 4 30 8 66 10 80 2 14 7 54 10 90
4 36 9 74 11 85 2 11 7 49 10 83 3 35 7 73 10 85 4 20 11 83 20 167 3 39 22
196 29 250 2 19 7 60 10 90 7 71 15 138 21 171 2 15 6 56 9 91 3 36 7 74 9 84
2 11 7 55 12 99 4 44 8 82 9 85 1 3 5 39 9 80 4 41 9 86 11 100 3 23 9 76 20
190 5 46 11 105 21 195 4 28 7 66 9 85 13 150 17 198 20 220 2 14 6 63 10 110
13 174 23 248 46 330 17 59 67 155 104 198 39 45 172 119 188 103 4 -4 29 -75
53 -157 24 -82 57 -192 74 -244 16 -52 67 -225 115 -385 47 -159 97 -328 111
-375 115 -385 128 -428 185 -615 28 -93 57 -190 64 -215 7 -25 45 -153 84
-285 40 -132 126 -420 192 -640 66 -220 126 -420 134 -445 7 -25 38 -128 69
-230 30 -102 87 -291 126 -420 39 -129 72 -242 75 -250 9 -34 90 -304 175
-585 50 -165 93 -307 95 -315 2 -8 67 -226 145 -485 79 -258 146 -483 150
-500 5 -16 72 -239 149 -495 78 -256 144 -472 146 -480 7 -28 225 -754 245
-815 15 -50 126 -414 155 -510 14 -49 46 -153 70 -230 23 -77 45 -149 48 -160
7 -28 188 -607 282 -900 90 -282 338 -1030 396 -1195 161 -456 238 -665 290
-795 7 -16 13 -32 14 -35 3 -9 16 -42 53 -135 46 -118 107 -265 143 -343 16
-35 29 -65 29 -68 0 -14 283 -589 360 -734 496 -921 1031 -1530 1589 -1805
225 -111 464 -166 696 -161 160 4 177 7 300 47 284 94 549 341 789 736 154
254 316 621 446 1015 99 298 219 727 270 969 11 52 26 126 35 164 14 66 47
252 60 340 4 22 8 51 11 65 2 14 6 45 10 70 3 25 7 56 10 70 9 57 22 186 39
395 10 119 16 340 20 785 2 261 7 768 11 1125 3 358 7 725 7 817 1 93 3 168 4
168 1 0 60 -43 130 -96 272 -205 518 -346 808 -464 72 -29 139 -56 150 -61 22
-9 230 -79 255 -85 8 -2 42 -11 75 -20 33 -9 68 -18 78 -20 10 -2 27 -6 37 -9
10 -3 27 -8 37 -10 59 -13 162 -35 186 -39 15 -3 55 -10 90 -16 34 -7 76 -14
92 -16 80 -9 132 -16 155 -19 262 -37 950 -43 1140 -10 14 2 48 7 75 10 90 10
128 16 235 37 58 11 116 22 130 24 45 8 251 64 349 95 236 75 530 206 716 319
34 20 68 39 75 42 28 11 266 174 360 248 221 171 441 382 630 600 36 41 67 77
70 80 17 15 188 240 252 330 299 423 618 1014 803 1490 21 52 44 110 52 129 8
18 19 45 23 60 5 14 31 91 59 171 77 218 211 684 245 853 3 12 9 45 15 72 6
28 13 61 16 75 2 14 7 36 10 50 3 14 8 36 11 50 6 30 33 183 40 225 2 17 9 53
14 80 8 45 34 224 45 318 3 20 7 54 10 75 2 20 7 62 10 92 3 30 8 71 10 90 3
19 7 67 10 105 3 39 7 99 10 135 18 218 28 503 28 805 0 253 -10 678 -18 726
-2 13 -6 77 -10 141 -3 65 -8 128 -10 140 -2 13 -6 64 -9 113 -4 50 -9 104
-11 120 -2 17 -7 57 -10 90 -3 33 -7 71 -9 85 -2 14 -7 49 -10 79 -7 62 -24
179 -41 291 -13 81 -25 158 -29 176 -2 12 -7 38 -10 59 -23 140 -110 525 -162
715 -8 30 -19 71 -24 90 -24 104 -166 528 -218 656 -64 157 -114 277 -138 334
-29 67 -213 434 -253 505 -223 393 -461 728 -750 1055 -80 90 -374 386 -451
453 -30 27 -66 58 -80 71 -278 251 -729 559 -1225 836 -109 61 -397 200 -445
215 -14 4 -29 11 -35 15 -5 4 -53 22 -105 40 -52 18 -102 35 -110 38 -18 6
-20 7 -90 27 -143 40 -198 47 -386 51 -105 2 -193 2 -195 0z m882 -1629 c20
-3 56 -8 80 -12 24 -3 55 -8 69 -11 117 -18 363 -99 475 -157 102 -52 282
-163 305 -187 3 -3 25 -21 50 -40 130 -101 287 -261 410 -420 19 -25 37 -47
40 -50 10 -9 146 -214 182 -275 91 -152 173 -312 243 -470 31 -71 63 -144 70
-160 49 -110 164 -442 210 -610 8 -27 21 -75 30 -105 9 -30 17 -62 19 -70 2
-8 16 -60 30 -115 26 -98 91 -381 102 -440 3 -16 14 -77 26 -135 11 -58 22
-114 23 -125 9 -49 36 -212 40 -235 5 -37 14 -99 20 -145 3 -23 7 -50 9 -62 3
-12 8 -53 11 -90 4 -37 9 -70 10 -73 2 -3 6 -43 10 -90 4 -47 9 -93 11 -103 1
-9 6 -54 9 -100 3 -45 8 -95 10 -112 3 -16 7 -75 11 -130 3 -55 7 -122 9 -150
19 -241 26 -1048 12 -1305 -12 -211 -24 -379 -32 -450 -3 -25 -7 -70 -10 -100
-3 -30 -10 -93 -16 -140 -5 -47 -12 -105 -15 -130 -3 -25 -7 -56 -10 -70 -2
-14 -7 -43 -9 -65 -7 -53 -32 -202 -50 -295 -8 -41 -17 -91 -20 -110 -19 -113
-87 -396 -164 -682 -36 -134 -156 -487 -225 -661 -265 -674 -577 -1185 -956
-1567 -313 -314 -641 -523 -1020 -646 -88 -29 -242 -71 -291 -79 -19 -3 -59
-10 -89 -15 -145 -26 -262 -34 -460 -34 -165 0 -314 7 -370 19 -14 3 -43 7
-65 10 -56 6 -207 40 -290 64 -326 94 -639 272 -895 507 -484 447 -837 1116
-1056 1999 -43 173 -40 77 -30 1060 3 325 9 824 11 1110 9 912 15 1318 19
1410 3 50 7 149 11 220 3 72 8 157 10 190 13 171 17 224 20 265 2 25 6 81 10
125 3 44 8 96 10 115 2 19 7 71 10 115 3 43 8 93 10 110 3 16 7 57 10 90 6 76
10 97 47 225 187 658 463 1320 756 1815 333 561 713 972 1142 1235 95 58 256
141 328 169 26 10 56 22 67 26 11 5 22 9 25 10 3 0 41 13 85 27 70 24 178 54
226 63 53 10 225 37 284 43 70 8 399 7 466 -1z"/>
<path d="M26245 15905 c-59 -15 -100 -48 -125 -101 l-23 -46 0 -1136 c0 -626
4 -1153 8 -1172 12 -55 46 -98 99 -125 l50 -25 725 0 c683 0 728 2 766 19 43
19 90 68 107 110 7 17 10 420 11 1177 l0 1151 -22 46 c-23 48 -95 106 -135
108 -12 1 -336 2 -720 3 -462 1 -713 -2 -741 -9z"/>
</g>
</svg>
